<svg xmlns="http://www.w3.org/2000/svg" version="1.1" xmlns:xlink="http://www.w3.org/1999/xlink" xmlns:svgjs="http://svgjs.dev/svgjs" width="1500" height="409" viewBox="0 0 1500 409"><g transform="matrix(1,0,0,1,-0.9090909090909918,0.44633667379204667)"><svg viewBox="0 0 396 108" data-background-color="#ffffff" preserveAspectRatio="xMidYMid meet" height="409" width="1500" xmlns="http://www.w3.org/2000/svg" xmlns:xlink="http://www.w3.org/1999/xlink"><g id="tight-bounds" transform="matrix(1,0,0,1,0.2400000000000091,-0.11785907278616037)"><svg viewBox="0 0 395.52 108.2357181455723" height="108.2357181455723" width="395.52"><g><svg viewBox="0 0 395.52 108.2357181455723" height="108.2357181455723" width="395.52"><g><svg viewBox="0 0 561.600669174107 153.6843945668827" height="108.2357181455723" width="395.52"><g transform="matrix(1,0,0,1,166.08066917410707,21.240028482108976)"><svg viewBox="0 0 395.52 111.20433760266475" height="111.20433760266475" width="395.52"><g id="textblocktransform"><svg viewBox="0 0 395.52 111.20433760266475" height="111.20433760266475" width="395.52" id="textblock"><g><svg viewBox="0 0 395.52 77.2835616732982" height="77.2835616732982" width="395.52"><g transform="matrix(1,0,0,1,0,0)"><svg width="395.52" viewBox="4.32 -36.11 227.01000000000002 44.36" height="77.2835616732982" data-palette-color="#0040ff"><path d="M4.32 0L4.32-34.55Q10.91-34.55 14.81-34.55 18.7-34.55 19.53-34.52L19.53-34.52Q23.14-34.35 24.63-33.68 26.12-33.01 27-32.18L27-32.18Q28.88-30.32 28.88-27.69L28.88-27.69Q28.88-25.07 27.05-23.1L27.05-23.1Q26.49-22.49 25.76-22.05L25.76-22.05Q29.74-21.31 32.28-18.7L32.28-18.7Q35.03-15.87 35.03-11.79L35.03-11.79Q35.03-7.64 32.47-4.64L32.47-4.64Q28.88-0.49 21.39-0.1L21.39-0.1Q19.48 0 17.63 0L17.63 0 4.32 0ZM20.34-22.53L20.34-22.53 21.58-22.39 21.97-22.39Q23.9-22.39 25.32-23.8L25.32-23.8Q26.83-25.32 26.83-27.51L26.83-27.51Q26.83-30.2 24.51-31.64L24.51-31.64Q23.34-32.37 22.18-32.51 21.02-32.64 20.36-32.69L20.36-32.69Q18.99-32.79 16.77-32.79L16.77-32.79 16.77-1.81 19.48-1.81Q23.63-1.81 26.25-2.83L26.25-2.83Q29.37-3.91 31.2-6.3L31.2-6.3Q32.93-8.57 32.93-11.06 32.93-13.55 32.2-15.26 31.47-16.97 30.08-18.16L30.08-18.16Q27.25-20.63 22.19-20.63L22.19-20.63 20.51-20.48Q19.73-20.48 19.36-20.8 18.99-21.12 18.99-21.53L18.99-21.53Q18.99-22.53 20.34-22.53ZM49.46 0.46L49.46 0.46Q40.89 0.46 40.89-7.91L40.89-7.91 40.89-26.07 51.34-26.07 51.34-2.17Q51.58-2.05 51.95-2.05L51.95-2.05 52.76-2.05Q54.71-2.05 57.39-4.69L57.39-4.69Q58.2-5.49 58.91-6.45L58.91-6.45 58.91-26.07 69.41-26.07 69.41 0 58.91 0 58.91-3.76Q54.93 0.46 49.46 0.46ZM81.93 5.76L81.93 5.76Q83.42 5.3 84 4.57L84 4.57Q84.83 3.59 86.01 1.05L86.01 1.05 86.57-0.24 73.26-26.07 84.37-26.07 91.3-11.33 95.31-20.68Q96.41-23.24 96.75-24.58 97.09-25.93 97.42-26.22 97.75-26.51 98.22-26.51 98.7-26.51 98.97-26.22 99.24-25.93 99.24-25.63 99.24-25.34 99.18-25.01 99.12-24.68 98.93-24.13 98.75-23.58 98.41-22.75L98.41-22.75 88.28 0.73Q86.47 4.98 84.81 6.71L84.81 6.71Q83.39 8.25 81.94 8.25 80.49 8.25 80.49 7.24 80.49 6.23 81.93 5.76ZM100.46 0.37Q99.99 0.32 99.75-0.05 99.5-0.42 99.55-0.85L99.55-0.85Q99.68-1.61 100.02-2.25 100.36-2.88 100.52-3.2 100.68-3.52 100.85-3.91L100.85-3.91 101.77-6.05 111.81-36.11 122.6-15.26 133.07-36.11 145.6 0 132.49 0 126.43-18.65 117.06 0.88 107.19-16.7 103.78-6.03Q102.97-4.25 102.63-3 102.29-1.76 102.07-1.07L102.07-1.07Q101.58 0.46 100.46 0.37L100.46 0.37ZM148.18-13.18L148.18-13.18Q148.18-16.11 149.25-18.52 150.31-20.92 152.16-22.71L152.16-22.71Q156.17-26.51 162.22-26.51L162.22-26.51Q168.4-26.51 172.28-22.56L172.28-22.56Q175.99-18.82 175.99-13.11L175.99-13.11Q175.99-7.37 172.18-3.52L172.18-3.52Q168.25 0.46 162.12 0.46L162.12 0.46Q156.14 0.46 152.21-3.32L152.21-3.32Q148.18-7.23 148.18-13.18ZM161.44-24.71L161.44-1.37Q161.64-1.34 161.83-1.34L161.83-1.34 162.17-1.34Q167.1-1.34 170.45-4.39L170.45-4.39Q174.01-7.69 174.01-13.04L174.01-13.04Q174.01-18.26 170.67-21.51L170.67-21.51Q167.37-24.73 162.15-24.73L162.15-24.73 161.78-24.73Q161.61-24.73 161.44-24.71L161.44-24.71ZM182.24 0L182.24-26.07 192.74-26.07 192.74-18.41Q194.42-22.58 196.36-24.55 198.3-26.51 200.26-26.51L200.26-26.51Q201.35-26.51 202-25.94 202.65-25.37 202.65-24.66 202.65-23.95 202.45-23.54 202.26-23.12 201.94-22.83L201.94-22.83Q201.28-22.22 200.7-22.22L200.7-22.22Q199.77-22.22 199.33-22.41L199.33-22.41Q198.57-22.75 197.99-22.75 197.4-22.75 196.5-21.81 195.59-20.87 194.76-19.21L194.76-19.21Q192.74-15.16 192.74-10.42L192.74-10.42 192.74 0 182.24 0ZM228.45-5.93L228.45-5.93Q229.4-5.93 229.4-5.05L229.4-5.05Q229.4-4.39 228.55-3.49L228.55-3.49Q224.69 0.46 217.98 0.46L217.98 0.46Q211.95 0.46 207.82-3.17L207.82-3.17Q203.55-6.96 203.55-12.74L203.55-12.74Q203.55-18.65 207.41-22.46L207.41-22.46Q211.48-26.51 218.25-26.51L218.25-26.51Q223.67-26.51 227.35-23.22L227.35-23.22Q231.33-19.68 231.33-13.92L231.33-13.92Q231.33-13.09 231.28-12.16L231.28-12.16 215.17-12.16 215.17-1.68Q216.83-1.34 218.91-1.34L218.91-1.34Q223.3-1.34 226.4-4.25L226.4-4.25Q227.04-4.88 227.3-5.25L227.3-5.25Q227.87-5.93 228.45-5.93ZM221.93-13.94L221.93-24.27Q220.35-24.73 218.34-24.73 216.34-24.73 215.17-24.46L215.17-24.46 215.17-13.94 221.93-13.94Z" opacity="1" transform="matrix(1,0,0,1,0,0)" fill="#0040ff" class="wordmark-text-0" data-fill-palette-color="primary" id="text-0"></path></svg></g></svg></g><g transform="matrix(1,0,0,1,0,95.52835577888374)"><svg viewBox="0 0 232.209792 15.67598182378101" height="15.67598182378101" width="232.209792"><g transform="matrix(1,0,0,1,0,0)"><svg width="232.209792" viewBox="3 -36.3 701.32 47.349999999999994" height="15.67598182378101" data-palette-color="#0040ff"><path d="M3-33.85L8.9-33.85 8.9-12.9Q8.9-8.25 10.85-6.28 12.8-4.3 16.15-4.3L16.15-4.3Q19.55-4.3 21.18-6.58 22.8-8.85 22.8-12.9L22.8-12.9 22.8-33.85 28.75-33.85 28.75-12.45Q28.75-9.85 28.08-7.55 27.4-5.25 25.85-3.5 24.3-1.75 21.75-0.73 19.2 0.3 15.5 0.3L15.5 0.3Q11.95 0.3 9.58-0.73 7.2-1.75 5.73-3.5 4.25-5.25 3.63-7.55 3-9.85 3-12.45L3-12.45 3-33.85ZM55.8 0L50.15 0 50.15-16.15Q50.15-18.25 49.4-19.53 48.65-20.8 46.85-20.8L46.85-20.8Q45.7-20.8 44.62-20.23 43.55-19.65 42.7-18.55 41.85-17.45 41.32-15.88 40.8-14.3 40.8-12.35L40.8-12.35 40.8 0 35.1 0 35.1-12.6Q35.1-15.6 34.7-17.63 34.3-19.65 33.85-20.9L33.85-20.9Q33.3-22.35 32.65-23.25L32.65-23.25 37.15-25.05Q37.65-24.5 38.15-23.7L38.15-23.7Q38.55-23 38.95-21.98 39.35-20.95 39.6-19.65L39.6-19.65Q40.9-22.65 43.35-23.98 45.8-25.3 48.5-25.3L48.5-25.3Q52.35-25.3 54.07-22.98 55.8-20.65 55.8-16.7L55.8-16.7 55.8 0ZM62.09-1.15L62.09-35.25 67.8-36.25 67.8-21Q68.69-23.05 70.32-24.18 71.94-25.3 74.5-25.3L74.5-25.3Q76.84-25.3 78.57-24.43 80.3-23.55 81.44-21.93 82.59-20.3 83.14-18 83.69-15.7 83.69-12.9L83.69-12.9Q83.69-10.05 82.82-7.63 81.94-5.2 80.37-3.45 78.8-1.7 76.59-0.7 74.39 0.3 71.75 0.3L71.75 0.3Q70.25 0.3 68.55 0.08 66.84-0.15 65.39-0.4L65.39-0.4Q63.74-0.7 62.09-1.15L62.09-1.15ZM73.55-21.3Q72.3-21.3 71.25-20.45 70.19-19.6 69.42-18.2 68.64-16.8 68.22-15.05 67.8-13.3 67.8-11.45L67.8-11.45 67.8-4.2Q68.25-4.1 69.25-3.9 70.25-3.7 71.09-3.7L71.09-3.7Q72.94-3.7 74.19-4.35 75.44-5 76.19-6.15 76.94-7.3 77.25-8.9 77.55-10.5 77.55-12.4L77.55-12.4Q77.55-14.15 77.44-15.75 77.34-17.35 76.92-18.6 76.5-19.85 75.69-20.58 74.89-21.3 73.55-21.3L73.55-21.3ZM98.59-25.5Q104.34-25.5 106.94-22.1 109.54-18.7 109.54-12.75L109.54-12.75Q109.54-9.95 108.84-7.53 108.14-5.1 106.72-3.33 105.29-1.55 103.14-0.53 100.99 0.5 98.14 0.5L98.14 0.5Q95.29 0.5 93.22-0.38 91.14-1.25 89.79-2.9 88.44-4.55 87.82-6.9 87.19-9.25 87.19-12.2L87.19-12.2Q87.19-15.05 87.89-17.48 88.59-19.9 90.02-21.68 91.44-23.45 93.59-24.48 95.74-25.5 98.59-25.5L98.59-25.5ZM98.09-21.3Q96.64-21.3 95.72-20.65 94.79-20 94.27-18.82 93.74-17.65 93.54-16.07 93.34-14.5 93.34-12.7L93.34-12.7Q93.34-10.85 93.57-9.2 93.79-7.55 94.39-6.33 94.99-5.1 96.02-4.4 97.04-3.7 98.64-3.7L98.64-3.7Q100.09-3.7 101.02-4.35 101.94-5 102.47-6.18 102.99-7.35 103.19-8.9 103.39-10.45 103.39-12.25L103.39-12.25Q103.39-14.1 103.17-15.75 102.94-17.4 102.34-18.65 101.74-19.9 100.72-20.6 99.69-21.3 98.09-21.3L98.09-21.3ZM116.19 0L109.79 0 118.14-13.2 110.84-24.9 117.44-24.9 120.59-19.75Q120.89-19.25 121.39-18.2 121.89-17.15 122.39-16.1L122.39-16.1Q122.99-17 123.56-17.9 124.14-18.8 124.59-19.65L124.59-19.65Q125.79-21.85 126.31-23.4 126.84-24.95 126.84-24.9L126.84-24.9 132.74-24.9Q132.74-24.95 132.14-23.25 131.54-21.55 130.04-18.75L130.04-18.75Q129.19-17.25 128.09-15.78 126.99-14.3 125.94-13.15L125.94-13.15 134.04 0 127.54 0 123.84-6.45 121.89-10.1 119.94-6.4 116.19 0ZM170.19 0L170.19-15.4 156.23-15.4 156.23 0 150.28 0 150.28-33.85 156.23-33.85 156.23-19.75 170.19-19.75 170.19-33.85 176.13-33.85 176.13 0 170.19 0ZM202.63-23.85L202.63-12.05Q202.63-9.05 203.01-7.03 203.38-5 203.83-3.75L203.83-3.75Q204.38-2.25 205.03-1.4L205.03-1.4 200.58 0.4Q199.93-0.25 199.38-1.15L199.38-1.15Q198.93-1.95 198.53-3.08 198.13-4.2 198.03-5.75L198.03-5.75Q197.18-2.75 195.31-1.23 193.43 0.3 190.23 0.3L190.23 0.3Q187.88 0.3 186.16-0.58 184.43-1.45 183.28-3.08 182.13-4.7 181.58-7 181.03-9.3 181.03-12.1L181.03-12.1Q181.03-14.95 181.91-17.38 182.78-19.8 184.36-21.55 185.93-23.3 188.13-24.3 190.33-25.3 192.98-25.3L192.98-25.3Q194.48-25.3 196.11-25.08 197.73-24.85 199.13-24.6 200.53-24.35 201.51-24.13 202.48-23.9 202.63-23.85L202.63-23.85ZM191.18-3.7Q192.43-3.7 193.48-4.55 194.53-5.4 195.31-6.78 196.08-8.15 196.51-9.93 196.93-11.7 196.93-13.55L196.93-13.55 196.93-20.75Q196.43-20.9 195.43-21.1 194.43-21.3 193.63-21.3L193.63-21.3Q191.73-21.3 190.51-20.65 189.28-20 188.53-18.85 187.78-17.7 187.48-16.1 187.18-14.5 187.18-12.6L187.18-12.6Q187.18-10.85 187.28-9.25 187.38-7.65 187.81-6.4 188.23-5.15 189.03-4.42 189.83-3.7 191.18-3.7L191.18-3.7ZM214.48 10.05L208.78 11.05 208.78-12.6Q208.78-15.6 208.38-17.63 207.98-19.65 207.53-20.9L207.53-20.9Q206.98-22.35 206.33-23.25L206.33-23.25 210.83-25.05Q211.43-24.45 211.93-23.55L211.93-23.55Q212.33-22.8 212.73-21.73 213.13-20.65 213.33-19.2L213.33-19.2Q214.18-22.2 216.03-23.75 217.88-25.3 221.18-25.3L221.18-25.3Q223.53-25.3 225.26-24.43 226.98-23.55 228.11-21.93 229.23-20.3 229.78-18 230.33-15.7 230.33-12.9L230.33-12.9Q230.33-10.05 229.48-7.63 228.63-5.2 227.06-3.45 225.48-1.7 223.28-0.7 221.08 0.3 218.38 0.3L218.38 0.3Q217.43 0.3 216.46 0.2 215.48 0.1 214.48 0L214.48 0 214.48 10.05ZM220.23-21.3Q218.98-21.3 217.93-20.45 216.88-19.6 216.11-18.2 215.33-16.8 214.91-15.05 214.48-13.3 214.48-11.45L214.48-11.45 214.48-4.25Q214.98-4.1 215.98-3.9 216.98-3.7 217.73-3.7L217.73-3.7Q219.63-3.7 220.88-4.35 222.13-5 222.88-6.15 223.63-7.3 223.93-8.9 224.23-10.5 224.23-12.4L224.23-12.4Q224.23-14.15 224.13-15.75 224.03-17.35 223.61-18.6 223.18-19.85 222.38-20.58 221.58-21.3 220.23-21.3L220.23-21.3ZM241.53 10.05L235.83 11.05 235.83-12.6Q235.83-15.6 235.43-17.63 235.03-19.65 234.58-20.9L234.58-20.9Q234.03-22.35 233.38-23.25L233.38-23.25 237.88-25.05Q238.48-24.45 238.98-23.55L238.98-23.55Q239.38-22.8 239.78-21.73 240.18-20.65 240.38-19.2L240.38-19.2Q241.23-22.2 243.08-23.75 244.93-25.3 248.23-25.3L248.23-25.3Q250.58-25.3 252.3-24.43 254.03-23.55 255.15-21.93 256.28-20.3 256.83-18 257.38-15.7 257.38-12.9L257.38-12.9Q257.38-10.05 256.53-7.63 255.68-5.2 254.1-3.45 252.53-1.7 250.33-0.7 248.13 0.3 245.43 0.3L245.43 0.3Q244.48 0.3 243.5 0.2 242.53 0.1 241.53 0L241.53 0 241.53 10.05ZM247.28-21.3Q246.03-21.3 244.98-20.45 243.93-19.6 243.15-18.2 242.38-16.8 241.95-15.05 241.53-13.3 241.53-11.45L241.53-11.45 241.53-4.25Q242.03-4.1 243.03-3.9 244.03-3.7 244.78-3.7L244.78-3.7Q246.68-3.7 247.93-4.35 249.18-5 249.93-6.15 250.68-7.3 250.98-8.9 251.28-10.5 251.28-12.4L251.28-12.4Q251.28-14.15 251.18-15.75 251.08-17.35 250.65-18.6 250.23-19.85 249.43-20.58 248.63-21.3 247.28-21.3L247.28-21.3ZM267.68 0.2Q265.03 0.2 263.63-1.38 262.23-2.95 262.23-5.45L262.23-5.45 262.23-24.9 267.93-24.9 267.93-5.95Q267.93-4.8 268.28-4.4 268.63-4 269.32-4L269.32-4Q269.53-4 269.75-4 269.98-4 270.18-4.05L270.18-4.05Q270.38-4.05 270.63-4.1L270.63-4.1 271.23-0.5Q270.88-0.3 270.32-0.15L270.32-0.15Q269.88 0 269.2 0.1 268.53 0.2 267.68 0.2L267.68 0.2ZM265.18-36Q266.78-36 267.63-35.05 268.48-34.1 268.48-32.6L268.48-32.6Q268.48-31.1 267.6-30.1 266.73-29.1 265.03-29.1L265.03-29.1Q263.43-29.1 262.55-30.08 261.68-31.05 261.68-32.45L261.68-32.45Q261.68-34 262.55-35 263.43-36 265.18-36L265.18-36ZM296.37 0L290.72 0 290.72-16.15Q290.72-18.25 289.97-19.53 289.22-20.8 287.42-20.8L287.42-20.8Q286.27-20.8 285.2-20.23 284.12-19.65 283.27-18.55 282.42-17.45 281.9-15.88 281.37-14.3 281.37-12.35L281.37-12.35 281.37 0 275.67 0 275.67-12.6Q275.67-15.6 275.27-17.63 274.87-19.65 274.42-20.9L274.42-20.9Q273.87-22.35 273.22-23.25L273.22-23.25 277.72-25.05Q278.22-24.5 278.72-23.7L278.72-23.7Q279.12-23 279.52-21.98 279.92-20.95 280.17-19.65L280.17-19.65Q281.47-22.65 283.92-23.98 286.37-25.3 289.07-25.3L289.07-25.3Q292.92-25.3 294.65-22.98 296.37-20.65 296.37-16.7L296.37-16.7 296.37 0ZM301.17-11.85Q301.17-15.2 302.1-17.75 303.02-20.3 304.65-22.03 306.27-23.75 308.47-24.63 310.67-25.5 313.22-25.5L313.22-25.5Q315.47-25.5 317.05-24.95 318.62-24.4 319.62-23.45 320.62-22.5 321.1-21.2 321.57-19.9 321.57-18.4L321.57-18.4Q321.57-16.6 320.57-14.98 319.57-13.35 317.69-12.13 315.82-10.9 313.17-10.18 310.52-9.45 307.22-9.4L307.22-9.4Q307.37-8.25 307.69-7.23 308.02-6.2 308.65-5.43 309.27-4.65 310.27-4.2 311.27-3.75 312.77-3.75L312.77-3.75Q313.87-3.75 315.12-4 316.37-4.25 317.42-4.6L317.42-4.6Q318.67-5 319.87-5.5L319.87-5.5 321.37-1.95Q320.07-1.3 318.57-0.8L318.57-0.8Q317.27-0.35 315.57 0 313.87 0.35 311.97 0.35L311.97 0.35Q309.07 0.35 307.02-0.53 304.97-1.4 303.67-3 302.37-4.6 301.77-6.85 301.17-9.1 301.17-11.85L301.17-11.85ZM312.77-21.6Q311.12-21.6 310.05-20.83 308.97-20.05 308.32-18.82 307.67-17.6 307.4-16.07 307.12-14.55 307.07-13L307.07-13Q309.47-13.1 311.15-13.63 312.82-14.15 313.87-14.93 314.92-15.7 315.4-16.6 315.87-17.5 315.87-18.4L315.87-18.4Q315.87-19.85 315.02-20.73 314.17-21.6 312.77-21.6L312.77-21.6ZM333.67-25.5L333.67-25.5Q335.12-25.5 336.52-25.2 337.92-24.9 339.02-24.5L339.02-24.5Q340.32-24.05 341.42-23.55L341.42-23.55 339.72-19.65Q338.72-20.1 337.72-20.45L337.72-20.45Q336.87-20.75 335.84-21.03 334.82-21.3 333.82-21.3L333.82-21.3Q332.67-21.3 331.84-20.75 331.02-20.2 331.02-19.1L331.02-19.1Q331.02-16.25 335.17-14.65L335.17-14.65Q336.72-14.05 337.97-13.38 339.22-12.7 340.09-11.8 340.97-10.9 341.42-9.73 341.87-8.55 341.87-6.95L341.87-6.95Q341.87-5.55 341.29-4.2 340.72-2.85 339.59-1.8 338.47-0.75 336.84-0.13 335.22 0.5 333.17 0.5L333.17 0.5Q331.52 0.5 329.92 0.13 328.32-0.25 327.04-0.7 325.77-1.15 325.02-1.55L325.02-1.55 324.27-1.9 326.12-6.1 326.77-5.75Q327.42-5.35 328.42-4.9 329.42-4.45 330.57-4.08 331.72-3.7 332.67-3.7L332.67-3.7Q334.42-3.7 335.27-4.4 336.12-5.1 336.12-6.25L336.12-6.25Q336.12-7.55 335.19-8.63 334.27-9.7 332.42-10.4L332.42-10.4Q328.57-11.85 326.89-13.7 325.22-15.55 325.22-18.5L325.22-18.5Q325.22-19.9 325.87-21.18 326.52-22.45 327.64-23.43 328.77-24.4 330.32-24.95 331.87-25.5 333.67-25.5ZM354.27-25.5L354.27-25.5Q355.72-25.5 357.12-25.2 358.52-24.9 359.62-24.5L359.62-24.5Q360.92-24.05 362.02-23.55L362.02-23.55 360.31-19.65Q359.31-20.1 358.31-20.45L358.31-20.45Q357.47-20.75 356.44-21.03 355.42-21.3 354.42-21.3L354.42-21.3Q353.27-21.3 352.44-20.75 351.62-20.2 351.62-19.1L351.62-19.1Q351.62-16.25 355.77-14.65L355.77-14.65Q357.31-14.05 358.56-13.38 359.81-12.7 360.69-11.8 361.56-10.9 362.02-9.73 362.47-8.55 362.47-6.95L362.47-6.95Q362.47-5.55 361.89-4.2 361.31-2.85 360.19-1.8 359.06-0.75 357.44-0.13 355.81 0.5 353.77 0.5L353.77 0.5Q352.12 0.5 350.52 0.13 348.92-0.25 347.64-0.7 346.37-1.15 345.62-1.55L345.62-1.55 344.87-1.9 346.72-6.1 347.37-5.75Q348.02-5.35 349.02-4.9 350.02-4.45 351.17-4.08 352.31-3.7 353.27-3.7L353.27-3.7Q355.02-3.7 355.87-4.4 356.72-5.1 356.72-6.25L356.72-6.25Q356.72-7.55 355.79-8.63 354.87-9.7 353.02-10.4L353.02-10.4Q349.17-11.85 347.49-13.7 345.81-15.55 345.81-18.5L345.81-18.5Q345.81-19.9 346.47-21.18 347.12-22.45 348.24-23.43 349.37-24.4 350.92-24.95 352.47-25.5 354.27-25.5ZM367.61-6.15Q367.66-6.2 368.41-6.63 369.16-7.05 370.91-7.05L370.91-7.05Q372.66-7.05 373.46-6 374.26-4.95 374.26-3.35L374.26-3.35Q374.26-1.3 373.69 0.35 373.11 2 372.16 3.35 371.21 4.7 369.99 5.7 368.76 6.7 367.41 7.35L367.41 7.35 365.26 4.45Q367.21 3 367.89 1.55 368.56 0.1 368.56-1.25L368.56-1.25Q368.56-2.7 368.11-3.95 367.66-5.2 367.61-6.15L367.61-6.15ZM403.26-34.3L403.26-34.3Q405.01-34.3 406.61-33.98 408.21-33.65 409.53-33.23 410.86-32.8 411.78-32.35 412.71-31.9 413.06-31.65L413.06-31.65 410.61-27.35 409.96-27.7Q409.31-28.05 408.26-28.5 407.21-28.95 405.96-29.3 404.71-29.65 403.56-29.65L403.56-29.65Q401.76-29.65 400.43-28.8 399.11-27.95 399.11-26.15L399.11-26.15Q399.11-23.9 400.56-22.48 402.01-21.05 405.11-19.85L405.11-19.85Q407.11-19.05 408.68-18.18 410.26-17.3 411.36-16.15 412.46-15 413.03-13.5 413.61-12 413.61-9.9L413.61-9.9Q413.61-8 412.88-6.15 412.16-4.3 410.73-2.88 409.31-1.45 407.21-0.58 405.11 0.3 402.36 0.3L402.36 0.3Q400.41 0.3 398.66-0.1 396.91-0.5 395.48-1.03 394.06-1.55 393.03-2.1 392.01-2.65 391.51-2.95L391.51-2.95 393.61-7.55 394.51-7.05Q395.41-6.55 396.71-5.95 398.01-5.35 399.46-4.85 400.91-4.35 401.96-4.35L401.96-4.35Q404.61-4.35 405.91-5.65 407.21-6.95 407.21-9.3L407.21-9.3Q407.21-10.4 406.86-11.23 406.51-12.05 405.86-12.65 405.21-13.25 404.28-13.73 403.36-14.2 402.21-14.65L402.21-14.65Q399.96-15.6 398.18-16.55 396.41-17.5 395.16-18.73 393.91-19.95 393.26-21.53 392.61-23.1 392.61-25.3L392.61-25.3Q392.61-27.15 393.41-28.78 394.21-30.4 395.61-31.63 397.01-32.85 398.96-33.58 400.91-34.3 403.26-34.3ZM424.31-36.25L424.31-21.7Q425.76-23.6 427.78-24.45 429.81-25.3 432.06-25.3L432.06-25.3Q435.91-25.3 437.63-22.98 439.36-20.65 439.36-16.7L439.36-16.7 439.36 0 433.66 0 433.66-16.3Q433.66-18.4 432.91-19.63 432.16-20.85 430.36-20.85L430.36-20.85Q429.31-20.85 428.23-20.3 427.16-19.75 426.28-18.73 425.41-17.7 424.86-16.3 424.31-14.9 424.31-13.2L424.31-13.2 424.31 0 418.61 0 418.61-35.25 424.31-36.25ZM455.5-25.5Q461.25-25.5 463.85-22.1 466.45-18.7 466.45-12.75L466.45-12.75Q466.45-9.95 465.75-7.53 465.05-5.1 463.63-3.33 462.2-1.55 460.05-0.53 457.9 0.5 455.05 0.5L455.05 0.5Q452.2 0.5 450.13-0.38 448.05-1.25 446.7-2.9 445.35-4.55 444.73-6.9 444.1-9.25 444.1-12.2L444.1-12.2Q444.1-15.05 444.8-17.48 445.5-19.9 446.93-21.68 448.35-23.45 450.5-24.48 452.65-25.5 455.5-25.5L455.5-25.5ZM455-21.3Q453.55-21.3 452.63-20.65 451.7-20 451.18-18.82 450.65-17.65 450.45-16.07 450.25-14.5 450.25-12.7L450.25-12.7Q450.25-10.85 450.48-9.2 450.7-7.55 451.3-6.33 451.9-5.1 452.93-4.4 453.95-3.7 455.55-3.7L455.55-3.7Q457-3.7 457.93-4.35 458.85-5 459.38-6.18 459.9-7.35 460.1-8.9 460.3-10.45 460.3-12.25L460.3-12.25Q460.3-14.1 460.08-15.75 459.85-17.4 459.25-18.65 458.65-19.9 457.63-20.6 456.6-21.3 455-21.3L455-21.3ZM477.6 10.05L471.9 11.05 471.9-12.6Q471.9-15.6 471.5-17.63 471.1-19.65 470.65-20.9L470.65-20.9Q470.1-22.35 469.45-23.25L469.45-23.25 473.95-25.05Q474.55-24.45 475.05-23.55L475.05-23.55Q475.45-22.8 475.85-21.73 476.25-20.65 476.45-19.2L476.45-19.2Q477.3-22.2 479.15-23.75 481-25.3 484.3-25.3L484.3-25.3Q486.65-25.3 488.38-24.43 490.1-23.55 491.23-21.93 492.35-20.3 492.9-18 493.45-15.7 493.45-12.9L493.45-12.9Q493.45-10.05 492.6-7.63 491.75-5.2 490.18-3.45 488.6-1.7 486.4-0.7 484.2 0.3 481.5 0.3L481.5 0.3Q480.55 0.3 479.58 0.2 478.6 0.1 477.6 0L477.6 0 477.6 10.05ZM483.35-21.3Q482.1-21.3 481.05-20.45 480-19.6 479.23-18.2 478.45-16.8 478.03-15.05 477.6-13.3 477.6-11.45L477.6-11.45 477.6-4.25Q478.1-4.1 479.1-3.9 480.1-3.7 480.85-3.7L480.85-3.7Q482.75-3.7 484-4.35 485.25-5 486-6.15 486.75-7.3 487.05-8.9 487.35-10.5 487.35-12.4L487.35-12.4Q487.35-14.15 487.25-15.75 487.15-17.35 486.73-18.6 486.3-19.85 485.5-20.58 484.7-21.3 483.35-21.3L483.35-21.3ZM511.5 0L511.5-33.85 517.45-33.85 517.45-4.5 530.1-4.5 530.1 0 511.5 0ZM538.59 0.2Q535.94 0.2 534.54-1.38 533.14-2.95 533.14-5.45L533.14-5.45 533.14-24.9 538.84-24.9 538.84-5.95Q538.84-4.8 539.19-4.4 539.54-4 540.24-4L540.24-4Q540.44-4 540.67-4 540.89-4 541.09-4.05L541.09-4.05Q541.29-4.05 541.54-4.1L541.54-4.1 542.14-0.5Q541.79-0.3 541.24-0.15L541.24-0.15Q540.79 0 540.12 0.1 539.44 0.2 538.59 0.2L538.59 0.2ZM536.09-36Q537.69-36 538.54-35.05 539.39-34.1 539.39-32.6L539.39-32.6Q539.39-31.1 538.52-30.1 537.64-29.1 535.94-29.1L535.94-29.1Q534.34-29.1 533.47-30.08 532.59-31.05 532.59-32.45L532.59-32.45Q532.59-34 533.47-35 534.34-36 536.09-36L536.09-36ZM580.34 0L574.69 0 574.69-16.3Q574.69-18.4 574.04-19.63 573.39-20.85 571.79-20.85L571.79-20.85Q570.84-20.85 569.87-20.33 568.89-19.8 568.09-18.8 567.29-17.8 566.79-16.4 566.29-15 566.29-13.3L566.29-13.3 566.29 0 560.64 0 560.64-16.3Q560.64-18.4 559.99-19.63 559.34-20.85 557.74-20.85L557.74-20.85Q556.74-20.85 555.76-20.28 554.79-19.7 554.01-18.6 553.24-17.5 552.76-15.93 552.29-14.35 552.29-12.4L552.29-12.4 552.29 0 546.59 0 546.59-12.6Q546.59-15.6 546.19-17.63 545.79-19.65 545.34-20.9L545.34-20.9Q544.79-22.35 544.14-23.25L544.14-23.25 548.64-25.05Q549.14-24.5 549.64-23.7L549.64-23.7Q550.04-23 550.44-21.98 550.84-20.95 551.09-19.65L551.09-19.65Q552.34-22.65 554.62-23.98 556.89-25.3 559.44-25.3L559.44-25.3Q561.99-25.3 563.41-24 564.84-22.7 565.54-20.65L565.54-20.65Q566.89-23.15 569.01-24.23 571.14-25.3 573.49-25.3L573.49-25.3Q575.44-25.3 576.76-24.68 578.09-24.05 578.87-22.93 579.64-21.8 579.99-20.23 580.34-18.65 580.34-16.7L580.34-16.7 580.34 0ZM591.84 0.2Q589.19 0.2 587.79-1.38 586.39-2.95 586.39-5.45L586.39-5.45 586.39-24.9 592.09-24.9 592.09-5.95Q592.09-4.8 592.44-4.4 592.79-4 593.49-4L593.49-4Q593.69-4 593.91-4 594.14-4 594.34-4.05L594.34-4.05Q594.54-4.05 594.79-4.1L594.79-4.1 595.39-0.5Q595.04-0.3 594.49-0.15L594.49-0.15Q594.04 0 593.36 0.1 592.69 0.2 591.84 0.2L591.84 0.2ZM589.34-36Q590.94-36 591.79-35.05 592.64-34.1 592.64-32.6L592.64-32.6Q592.64-31.1 591.76-30.1 590.89-29.1 589.19-29.1L589.19-29.1Q587.59-29.1 586.71-30.08 585.84-31.05 585.84-32.45L585.84-32.45Q585.84-34 586.71-35 587.59-36 589.34-36L589.34-36ZM596.43-20.85L596.43-24.9 600.93-24.9 601.93-30.75 606.63-31.8 606.63-24.9 612.78-24.9 612.08-20.85 606.63-20.85 606.63-6.05Q606.63-4.75 607.33-4.38 608.03-4 608.88-4L608.88-4Q609.58-4 610.28-4.1 610.98-4.2 611.53-4.35L611.53-4.35Q612.18-4.5 612.78-4.7L612.78-4.7 613.73-0.95 613.28-0.8Q612.83-0.6 611.96-0.38 611.08-0.15 609.91 0.03 608.73 0.2 607.33 0.2L607.33 0.2Q605.93 0.2 604.76-0.1 603.58-0.4 602.73-1.07 601.88-1.75 601.41-2.8 600.93-3.85 600.93-5.4L600.93-5.4 600.93-20.85 596.43-20.85ZM622.53 0.2Q619.68 0.2 618.33-1.38 616.98-2.95 616.98-5.4L616.98-5.4 616.98-35.25 622.68-36.3 622.68-5.95Q622.68-4.8 623.13-4.35 623.58-3.9 624.43-3.9L624.43-3.9Q624.93-3.9 625.41-3.95 625.88-4 626.28-4.1L626.28-4.1Q626.73-4.2 627.08-4.3L627.08-4.3 627.78-0.7Q627.13-0.45 626.33-0.25L626.33-0.25Q625.63-0.05 624.68 0.08 623.73 0.2 622.53 0.2L622.53 0.2ZM629.53-11.85Q629.53-15.2 630.45-17.75 631.38-20.3 633-22.03 634.63-23.75 636.83-24.63 639.03-25.5 641.58-25.5L641.58-25.5Q643.83-25.5 645.4-24.95 646.98-24.4 647.98-23.45 648.98-22.5 649.45-21.2 649.93-19.9 649.93-18.4L649.93-18.4Q649.93-16.6 648.93-14.98 647.93-13.35 646.05-12.13 644.18-10.9 641.53-10.18 638.88-9.45 635.58-9.4L635.58-9.4Q635.73-8.25 636.05-7.23 636.38-6.2 637-5.43 637.63-4.65 638.63-4.2 639.63-3.75 641.13-3.75L641.13-3.75Q642.23-3.75 643.48-4 644.73-4.25 645.78-4.6L645.78-4.6Q647.03-5 648.23-5.5L648.23-5.5 649.73-1.95Q648.43-1.3 646.93-0.8L646.93-0.8Q645.63-0.35 643.93 0 642.23 0.35 640.33 0.35L640.33 0.35Q637.43 0.35 635.38-0.53 633.33-1.4 632.03-3 630.73-4.6 630.13-6.85 629.53-9.1 629.53-11.85L629.53-11.85ZM641.13-21.6Q639.48-21.6 638.4-20.83 637.33-20.05 636.68-18.82 636.03-17.6 635.75-16.07 635.48-14.55 635.43-13L635.43-13Q637.83-13.1 639.5-13.63 641.18-14.15 642.23-14.93 643.28-15.7 643.75-16.6 644.23-17.5 644.23-18.4L644.23-18.4Q644.23-19.85 643.38-20.73 642.53-21.6 641.13-21.6L641.13-21.6ZM662.03-25.5L662.03-25.5Q663.48-25.5 664.88-25.2 666.28-24.9 667.38-24.5L667.38-24.5Q668.68-24.05 669.78-23.55L669.78-23.55 668.08-19.65Q667.08-20.1 666.08-20.45L666.08-20.45Q665.23-20.75 664.2-21.03 663.18-21.3 662.18-21.3L662.18-21.3Q661.03-21.3 660.2-20.75 659.38-20.2 659.38-19.1L659.38-19.1Q659.38-16.25 663.53-14.65L663.53-14.65Q665.08-14.05 666.33-13.38 667.58-12.7 668.45-11.8 669.33-10.9 669.78-9.73 670.23-8.55 670.23-6.95L670.23-6.95Q670.23-5.55 669.65-4.2 669.08-2.85 667.95-1.8 666.83-0.75 665.2-0.13 663.58 0.5 661.53 0.5L661.53 0.5Q659.88 0.5 658.28 0.13 656.68-0.25 655.4-0.7 654.13-1.15 653.38-1.55L653.38-1.55 652.63-1.9 654.48-6.1 655.13-5.75Q655.78-5.35 656.78-4.9 657.78-4.45 658.93-4.08 660.08-3.7 661.03-3.7L661.03-3.7Q662.78-3.7 663.63-4.4 664.48-5.1 664.48-6.25L664.48-6.25Q664.48-7.55 663.55-8.63 662.63-9.7 660.78-10.4L660.78-10.4Q656.93-11.85 655.25-13.7 653.58-15.55 653.58-18.5L653.58-18.5Q653.58-19.9 654.23-21.18 654.88-22.45 656-23.43 657.13-24.4 658.68-24.95 660.23-25.5 662.03-25.5ZM682.62-25.5L682.62-25.5Q684.07-25.5 685.47-25.2 686.87-24.9 687.97-24.5L687.97-24.5Q689.27-24.05 690.37-23.55L690.37-23.55 688.67-19.65Q687.67-20.1 686.67-20.45L686.67-20.45Q685.82-20.75 684.8-21.03 683.77-21.3 682.77-21.3L682.77-21.3Q681.62-21.3 680.8-20.75 679.97-20.2 679.97-19.1L679.97-19.1Q679.97-16.25 684.12-14.65L684.12-14.65Q685.67-14.05 686.92-13.38 688.17-12.7 689.05-11.8 689.92-10.9 690.37-9.73 690.82-8.55 690.82-6.95L690.82-6.95Q690.82-5.55 690.25-4.2 689.67-2.85 688.55-1.8 687.42-0.75 685.8-0.13 684.17 0.5 682.12 0.5L682.12 0.5Q680.47 0.5 678.87 0.13 677.27-0.25 676-0.7 674.72-1.15 673.97-1.55L673.97-1.55 673.22-1.9 675.07-6.1 675.72-5.75Q676.37-5.35 677.37-4.9 678.37-4.45 679.52-4.08 680.67-3.7 681.62-3.7L681.62-3.7Q683.37-3.7 684.22-4.4 685.07-5.1 685.07-6.25L685.07-6.25Q685.07-7.55 684.15-8.63 683.22-9.7 681.37-10.4L681.37-10.4Q677.52-11.85 675.85-13.7 674.17-15.55 674.17-18.5L674.17-18.5Q674.17-19.9 674.82-21.18 675.47-22.45 676.6-23.43 677.72-24.4 679.27-24.95 680.82-25.5 682.62-25.5ZM700.42-7Q702.17-7 703.12-5.95 704.07-4.9 704.07-3.25L704.07-3.25Q704.07-1.65 703.12-0.55 702.17 0.55 700.27 0.55L700.27 0.55Q698.52 0.55 697.6-0.55 696.67-1.65 696.67-3.15L696.67-3.15Q696.67-4.75 697.62-5.88 698.57-7 700.42-7L700.42-7ZM697.97-11L697.97-33.85 704.32-33.85 702.87-11 697.97-11Z" opacity="1" transform="matrix(1,0,0,1,0,0)" fill="#0040ff" class="slogan-text-1" data-fill-palette-color="secondary" id="text-1"></path></svg></g></svg></g></svg></g></svg></g><g><svg viewBox="0 0 147.83587506852152 153.6843945668827" height="153.6843945668827" width="147.83587506852152"><g><svg xmlns="http://www.w3.org/2000/svg" xmlns:xlink="http://www.w3.org/1999/xlink" version="1.1" viewBox="37.53099999999999 24.32 178.63599999999997 185.703" x="0" y="0" height="153.6843945668827" width="147.83587506852152" class="icon-icon-0" data-fill-palette-color="accent" id="icon-0"><path d="M206.489 97.126l-20.403 59.904c-0.231 0.743-1.024 1.843-2.15 2.637-1.101 0.793-2.381 1.203-3.174 1.178l-72.96 0.077c-0.793 0.025-2.15-0.384-3.302-1.203-1.152-0.793-2.022-1.92-2.304-2.662v0l-36.787-97.152c-1.229-3.2-3.456-5.657-6.067-7.475-2.611-1.792-5.709-2.995-9.139-3.021h-12.672v10.24h12.672c0.794-0.026 2.176 0.384 3.303 1.203 1.178 0.794 2.023 1.92 2.304 2.663v0l36.787 97.152c1.229 3.2 3.456 5.657 6.041 7.475 2.611 1.792 5.709 2.995 9.139 3.021h0.025l72.96-0.077c3.43-0.025 6.528-1.255 9.139-3.097 2.585-1.869 4.736-4.403 5.863-7.655l20.403-59.904-9.677-3.302z" fill="#0040ff" data-fill-palette-color="accent"></path><path d="M115.174 197.12c0 7.126-5.776 12.903-12.903 12.903s-12.903-5.776-12.903-12.903c0-7.126 5.776-12.903 12.903-12.903s12.903 5.776 12.903 12.903z" fill="#0040ff" data-fill-palette-color="accent"></path><path d="M197.837 197.12c0 7.126-5.776 12.903-12.903 12.903s-12.903-5.776-12.903-12.903c0-7.126 5.776-12.903 12.903-12.903s12.903 5.776 12.903 12.903z" fill="#0040ff" data-fill-palette-color="accent"></path><path d="M140.8 24.32v83.405c-8.627-8.602-25.344-25.293-29.671-29.619-5.939-5.939-17.767 0-17.767 0l52.659 52.608 52.429-52.429c0 0-11.827-5.913-17.767 0-4.377 4.377-21.145 21.145-29.645 29.671v-83.635h-10.24z" fill="#0040ff" data-fill-palette-color="accent"></path></svg></g></svg></g></svg></g></svg></g><defs></defs></svg><rect width="395.52" height="108.2357181455723" fill="none" stroke="none" visibility="hidden"></rect></g></svg></g></svg>